<?xml version="1.0" standalone="no"?>
<!DOCTYPE svg PUBLIC "-//W3C//DTD SVG 20010904//EN"
 "http://www.w3.org/TR/2001/REC-SVG-20010904/DTD/svg10.dtd">
<svg version="1.0" xmlns="http://www.w3.org/2000/svg"
 width="199.000000pt" height="199.000000pt" viewBox="0 0 199.000000 199.000000"
 preserveAspectRatio="xMidYMid meet">
<metadata>
Created by potrace 1.14, written by Peter Selinger 2001-2017
</metadata>
<g transform="translate(0.000000,199.000000) scale(0.100000,-0.100000)"
fill="#000000" stroke="none">
<path d="M890 1979 c-30 -3 -71 -9 -90 -12 -19 -4 -38 -7 -42 -8 -4 0 -38 -12
-75 -25 -37 -14 -72 -26 -78 -27 -10 -3 -52 -24 -114 -59 -193 -107 -368 -325
-439 -548 -54 -168 -62 -361 -23 -530 55 -239 212 -464 421 -601 164 -108 339
-159 545 -160 377 0 712 207 883 547 76 150 102 278 98 469 -2 72 -6 140 -9
152 -41 164 -97 293 -176 401 -108 149 -282 281 -449 342 -147 53 -312 75
-452 59z"/>
</g>
</svg>
